#N canvas 0 0 1888 970 10;
#X obj 816 355 spigot 1;
#X obj 861 326 tgl 15 0 empty empty empty 17 7 0 10 -262144 -1 -1 1
1;
#X obj 861 429 del 5000;
#X msg 861 454 1;
#X msg 861 285 0;
#X obj 789 217 inlet;
#X obj 816 504 outlet;
#X obj 946 412 f \$1;
#X obj 946 337 loadbang;
#X obj 789 268 t b a;
#X obj 816 403 t a b, f 8;
#X connect 0 0 10 0;
#X connect 1 0 0 1;
#X connect 2 0 3 0;
#X connect 3 0 1 0;
#X connect 4 0 1 0;
#X connect 5 0 9 0;
#X connect 7 0 2 1;
#X connect 8 0 7 0;
#X connect 9 0 4 0;
#X connect 9 1 0 0;
#X connect 10 0 6 0;
#X connect 10 1 2 0;
