#N canvas 0 12 1888 970 10;
#X declare -lib zexy;
#X declare -lib cyclone;
#N canvas 0 0 1888 970 GUI 1;
#X obj 837 54 hsl 284 28 0 600 0 0 empty visualizeVoltage voltage 3
-12 0 10 -4096 -1 -1 18735 1;
#X obj 625 41 bng 25 250 50 0 openPort empty open\ port 32 9 0 10 -4033
-1 -1;
#X obj 625 75 bng 25 250 50 0 closePort empty close\ port 32 8 0 10
-258049 -1 -1;
#X floatatom 654 177 5 0 0 0 port - -, f 5;
#X floatatom 837 93 7 0 0 0 - - -, f 7;
#X symbolatom 708 178 10 0 0 0 is - -, f 10;
#X obj 625 7 r \$0-calibrate;
#X obj 1326 74 r triggerThreshold;
#X floatatom 1094 91 5 0 0 0 trigger_threshold: - -, f 5;
#X text 838 145 touched for too long;
#X text 813 175 not touched for too long;
#X obj 1186 48 bng 25 250 50 0 empty \$0-touched empty 17 7 0 10 -133153
-1 -1;
#X obj 972 141 hsl 183 22 0 0.5 0 0 empty \$0-timeTouched empty -2
-8 0 10 -258049 -1 -1 18200 1;
#X obj 972 171 hsl 183 22 0 1 0 0 empty \$0-notTouchedFor empty -2
-8 0 10 -4033 -1 -1 0 1;
#N canvas 0 0 1888 970 getInput 0;
#X obj 756 358 loadbang;
#X msg 701 402 open \$1;
#X msg 756 402 close \$1;
#X msg 756 380 5;
#X msg 701 380 5;
#X floatatom 701 266 5 0 0 0 - - -, f 5;
#X msg 701 328 set \$1;
#X obj 701 245 + 1;
#X obj 770 294 outlet;
#X msg 1527 363 open;
#X msg 1527 341 closed;
#X obj 1527 385 symbol;
#X obj 1435 346 r openPort;
#X obj 1435 324 r closePort;
#X obj 1527 410 outlet;
#X obj 700 212 inlet;
#X obj 527 363 r openPort;
#X obj 439 363 r closePort;
#X msg 527 413 devices;
#X obj 527 389 loadbang;
#X obj 501 398 bng 15 250 50 0 empty \$0-print_available_ports empty
17 7 0 10 -262144 -1 -1;
#X obj 1079 332 r \$0-activateLEDs;
#X msg 1136 413 1;
#X obj 1136 387 bng 15 250 50 0 empty empty empty 17 7 0 10 -262144
-1 -1;
#X obj 1079 362 moses 0.15;
#X obj 1079 386 bng 15 250 50 0 empty empty empty 17 7 0 10 -262144
-1 -1;
#X msg 1079 413 0;
#X text 1048 281 activate LEDs when the "plant speaks";
#X msg 628 412 info;
#X obj 701 430 comport 5 57600;
#X obj 701 804 outlet;
#X obj 701 500 getSensorData 65;
#X floatatom 701 578 5 0 0 0 - - -, f 5;
#X obj 502 671 s visualizeVoltage;
#X obj 701 525 mavg 5;
#X connect 0 0 3 0;
#X connect 1 0 29 0;
#X connect 2 0 29 0;
#X connect 3 0 2 0;
#X connect 4 0 1 0;
#X connect 5 0 6 0;
#X connect 5 0 8 0;
#X connect 6 0 4 0;
#X connect 6 0 3 0;
#X connect 7 0 5 0;
#X connect 9 0 11 0;
#X connect 10 0 11 0;
#X connect 11 0 14 0;
#X connect 12 0 9 0;
#X connect 13 0 10 0;
#X connect 15 0 7 0;
#X connect 16 0 4 0;
#X connect 17 0 3 0;
#X connect 18 0 29 0;
#X connect 19 0 18 0;
#X connect 20 0 18 0;
#X connect 21 0 24 0;
#X connect 22 0 29 0;
#X connect 23 0 22 0;
#X connect 24 0 25 0;
#X connect 24 1 23 0;
#X connect 25 0 26 0;
#X connect 26 0 29 0;
#X connect 28 0 29 0;
#X connect 29 0 31 0;
#X connect 31 0 34 0;
#X connect 32 0 33 0;
#X connect 32 0 30 0;
#X connect 34 0 32 0;
#X restore 627 217 pd getInput;
#X f 14;
#X obj 627 146 hradio 17 0 0 8 empty empty select\ port 0 -8 0 10 -262144
-1 -1 4;
#X obj 543 96 loadbang;
#X msg 543 118 4;
#N canvas 0 0 1888 970 calculateTouches 0;
#X floatatom 533 266 8 0 0 0 - - -, f 8;
#X floatatom 615 358 5 0 0 0 - - -, f 5;
#N canvas 0 0 1888 970 calibrate 0;
#X floatatom 563 400 5 0 0 0 - - -, f 5;
#X obj 1004 493 +;
#X obj 563 88 inlet;
#X obj 1004 543 outlet;
#X obj 395 352 bng 70 250 50 0 empty \$0-calibrate start\ calibrating
-112 46 0 10 -262144 -1 -1;
#N canvas 0 0 1888 970 average5s 0;
#X obj 599 238 bng 35 250 50 0 empty empty empty 17 7 0 10 -262144
-1 -1;
#X obj 599 391 bng 35 250 50 0 empty empty empty 17 7 0 10 -262144
-1 -1;
#X obj 627 549 f;
#X floatatom 627 574 5 0 0 0 - - -, f 5;
#N canvas 0 0 1904 986 movingAverage 0;
#X obj 266 227 +;
#X msg 266 199 1;
#X obj 303 227 f;
#X floatatom 266 252 5 0 0 0 - - -, f 5;
#X obj 163 227 +;
#X obj 202 227 f;
#X floatatom 163 252 5 0 0 0 - - -, f 5;
#X msg 467 210 0;
#X obj 163 284 /;
#X floatatom 163 309 5 0 0 0 - - -, f 5;
#X obj 163 182 t f b;
#X obj 163 106 inlet;
#X text 495 210 clear;
#X obj 467 185 inlet;
#X obj 163 333 outlet;
#X connect 0 0 2 0;
#X connect 0 0 3 0;
#X connect 1 0 0 0;
#X connect 2 0 0 1;
#X connect 3 0 8 1;
#X connect 4 0 5 0;
#X connect 4 0 6 0;
#X connect 5 0 4 1;
#X connect 6 0 8 0;
#X connect 7 0 0 1;
#X connect 7 0 4 1;
#X connect 8 0 9 0;
#X connect 9 0 14 0;
#X connect 10 0 4 0;
#X connect 10 1 1 0;
#X connect 11 0 10 0;
#X connect 13 0 7 0;
#X restore 692 508 pd movingAverage;
#X floatatom 692 533 5 0 0 0 - - -, f 5;
#X obj 785 348 bng 15 250 50 0 empty empty empty 17 7 0 10 -262144
-1 -1;
#X msg 737 348 1;
#X obj 692 483 spigot 0;
#X obj 599 331 t b b b;
#X obj 599 434 t b b;
#X msg 737 451 0;
#X obj 692 557 bng 15 250 50 0 empty empty empty 17 7 0 10 -262144
-1 -1;
#X obj 446 221 inlet;
#X obj 513 466 inlet;
#X obj 627 598 outlet;
#X obj 947 426 outlet;
#X obj 599 281 del 2000;
#X obj 599 359 del 4000;
#X connect 0 0 17 0;
#X connect 1 0 10 0;
#X connect 1 0 16 0;
#X connect 2 0 3 0;
#X connect 3 0 15 0;
#X connect 4 0 5 0;
#X connect 5 0 2 1;
#X connect 5 0 12 0;
#X connect 6 0 4 1;
#X connect 7 0 8 1;
#X connect 8 0 4 0;
#X connect 9 0 18 0;
#X connect 9 1 7 0;
#X connect 9 2 6 0;
#X connect 10 0 11 0;
#X connect 10 1 2 0;
#X connect 11 0 8 1;
#X connect 13 0 0 0;
#X connect 14 0 8 0;
#X connect 17 0 9 0;
#X connect 18 0 1 0;
#X restore 427 452 pd average5s;
#X floatatom 427 477 5 0 0 0 - - -, f 5;
#X obj 496 560 bng 15 250 50 0 empty empty empty 17 7 0 10 -262144
-1 -1;
#N canvas 0 0 1888 970 average5s 0;
#X obj 599 238 bng 35 250 50 0 empty empty empty 17 7 0 10 -262144
-1 -1;
#X obj 599 391 bng 35 250 50 0 empty empty empty 17 7 0 10 -262144
-1 -1;
#X obj 627 549 f;
#X floatatom 627 574 5 0 0 0 - - -, f 5;
#N canvas 0 0 1904 986 movingAverage 0;
#X obj 266 227 +;
#X msg 266 199 1;
#X obj 303 227 f;
#X floatatom 266 252 5 0 0 0 - - -, f 5;
#X obj 163 227 +;
#X obj 202 227 f;
#X floatatom 163 252 5 0 0 0 - - -, f 5;
#X msg 467 210 0;
#X obj 163 284 /;
#X floatatom 163 309 5 0 0 0 - - -, f 5;
#X obj 163 182 t f b;
#X obj 163 106 inlet;
#X text 495 210 clear;
#X obj 467 185 inlet;
#X obj 163 333 outlet;
#X connect 0 0 2 0;
#X connect 0 0 3 0;
#X connect 1 0 0 0;
#X connect 2 0 0 1;
#X connect 3 0 8 1;
#X connect 4 0 5 0;
#X connect 4 0 6 0;
#X connect 5 0 4 1;
#X connect 6 0 8 0;
#X connect 7 0 0 1;
#X connect 7 0 4 1;
#X connect 8 0 9 0;
#X connect 9 0 14 0;
#X connect 10 0 4 0;
#X connect 10 1 1 0;
#X connect 11 0 10 0;
#X connect 13 0 7 0;
#X restore 692 508 pd movingAverage;
#X floatatom 692 533 5 0 0 0 - - -, f 5;
#X obj 785 348 bng 15 250 50 0 empty empty empty 17 7 0 10 -262144
-1 -1;
#X msg 737 348 1;
#X obj 692 483 spigot 0;
#X obj 599 331 t b b b;
#X obj 599 434 t b b;
#X msg 737 451 0;
#X obj 692 557 bng 15 250 50 0 empty empty empty 17 7 0 10 -262144
-1 -1;
#X obj 446 221 inlet;
#X obj 513 466 inlet;
#X obj 627 598 outlet;
#X obj 947 426 outlet;
#X obj 599 281 del 2000;
#X obj 599 359 del 4000;
#X connect 0 0 17 0;
#X connect 1 0 10 0;
#X connect 1 0 16 0;
#X connect 2 0 3 0;
#X connect 3 0 15 0;
#X connect 4 0 5 0;
#X connect 5 0 2 1;
#X connect 5 0 12 0;
#X connect 6 0 4 1;
#X connect 7 0 8 1;
#X connect 8 0 4 0;
#X connect 9 0 18 0;
#X connect 9 1 7 0;
#X connect 9 2 6 0;
#X connect 10 0 11 0;
#X connect 10 1 2 0;
#X connect 11 0 8 1;
#X connect 13 0 0 0;
#X connect 14 0 8 0;
#X connect 17 0 9 0;
#X connect 18 0 1 0;
#X restore 528 452 pd average5s;
#X floatatom 528 477 5 0 0 0 - - -, f 5;
#X obj 597 560 bng 15 250 50 0 empty empty empty 17 7 0 10 -262144
-1 -1;
#N canvas 0 0 1888 970 average5s 0;
#X obj 599 238 bng 35 250 50 0 empty empty empty 17 7 0 10 -262144
-1 -1;
#X obj 599 391 bng 35 250 50 0 empty empty empty 17 7 0 10 -262144
-1 -1;
#X obj 627 549 f;
#X floatatom 627 574 5 0 0 0 - - -, f 5;
#N canvas 0 0 1904 986 movingAverage 0;
#X obj 266 227 +;
#X msg 266 199 1;
#X obj 303 227 f;
#X floatatom 266 252 5 0 0 0 - - -, f 5;
#X obj 163 227 +;
#X obj 202 227 f;
#X floatatom 163 252 5 0 0 0 - - -, f 5;
#X msg 467 210 0;
#X obj 163 284 /;
#X floatatom 163 309 5 0 0 0 - - -, f 5;
#X obj 163 182 t f b;
#X obj 163 106 inlet;
#X text 495 210 clear;
#X obj 467 185 inlet;
#X obj 163 333 outlet;
#X connect 0 0 2 0;
#X connect 0 0 3 0;
#X connect 1 0 0 0;
#X connect 2 0 0 1;
#X connect 3 0 8 1;
#X connect 4 0 5 0;
#X connect 4 0 6 0;
#X connect 5 0 4 1;
#X connect 6 0 8 0;
#X connect 7 0 0 1;
#X connect 7 0 4 1;
#X connect 8 0 9 0;
#X connect 9 0 14 0;
#X connect 10 0 4 0;
#X connect 10 1 1 0;
#X connect 11 0 10 0;
#X connect 13 0 7 0;
#X restore 692 508 pd movingAverage;
#X floatatom 692 533 5 0 0 0 - - -, f 5;
#X obj 785 348 bng 15 250 50 0 empty empty empty 17 7 0 10 -262144
-1 -1;
#X msg 737 348 1;
#X obj 692 483 spigot 0;
#X obj 599 331 t b b b;
#X obj 599 434 t b b;
#X msg 737 451 0;
#X obj 692 557 bng 15 250 50 0 empty empty empty 17 7 0 10 -262144
-1 -1;
#X obj 446 221 inlet;
#X obj 513 466 inlet;
#X obj 627 598 outlet;
#X obj 947 426 outlet;
#X obj 599 281 del 2000;
#X obj 599 359 del 4000;
#X connect 0 0 17 0;
#X connect 1 0 10 0;
#X connect 1 0 16 0;
#X connect 2 0 3 0;
#X connect 3 0 15 0;
#X connect 4 0 5 0;
#X connect 5 0 2 1;
#X connect 5 0 12 0;
#X connect 6 0 4 1;
#X connect 7 0 8 1;
#X connect 8 0 4 0;
#X connect 9 0 18 0;
#X connect 9 1 7 0;
#X connect 9 2 6 0;
#X connect 10 0 11 0;
#X connect 10 1 2 0;
#X connect 11 0 8 1;
#X connect 13 0 0 0;
#X connect 14 0 8 0;
#X connect 17 0 9 0;
#X connect 18 0 1 0;
#X restore 629 452 pd average5s;
#X obj 698 560 bng 15 250 50 0 empty empty empty 17 7 0 10 -262144
-1 -1;
#N canvas 0 0 1888 970 average5s 0;
#X obj 599 238 bng 35 250 50 0 empty empty empty 17 7 0 10 -262144
-1 -1;
#X obj 599 391 bng 35 250 50 0 empty empty empty 17 7 0 10 -262144
-1 -1;
#X obj 627 549 f;
#X floatatom 627 574 5 0 0 0 - - -, f 5;
#N canvas 0 0 1904 986 movingAverage 0;
#X obj 266 227 +;
#X msg 266 199 1;
#X obj 303 227 f;
#X floatatom 266 252 5 0 0 0 - - -, f 5;
#X obj 163 227 +;
#X obj 202 227 f;
#X floatatom 163 252 5 0 0 0 - - -, f 5;
#X msg 467 210 0;
#X obj 163 284 /;
#X floatatom 163 309 5 0 0 0 - - -, f 5;
#X obj 163 182 t f b;
#X obj 163 106 inlet;
#X text 495 210 clear;
#X obj 467 185 inlet;
#X obj 163 333 outlet;
#X connect 0 0 2 0;
#X connect 0 0 3 0;
#X connect 1 0 0 0;
#X connect 2 0 0 1;
#X connect 3 0 8 1;
#X connect 4 0 5 0;
#X connect 4 0 6 0;
#X connect 5 0 4 1;
#X connect 6 0 8 0;
#X connect 7 0 0 1;
#X connect 7 0 4 1;
#X connect 8 0 9 0;
#X connect 9 0 14 0;
#X connect 10 0 4 0;
#X connect 10 1 1 0;
#X connect 11 0 10 0;
#X connect 13 0 7 0;
#X restore 692 508 pd movingAverage;
#X floatatom 692 533 5 0 0 0 - - -, f 5;
#X obj 785 348 bng 15 250 50 0 empty empty empty 17 7 0 10 -262144
-1 -1;
#X msg 737 348 1;
#X obj 692 483 spigot 0;
#X obj 599 331 t b b b;
#X obj 599 434 t b b;
#X msg 737 451 0;
#X obj 692 557 bng 15 250 50 0 empty empty empty 17 7 0 10 -262144
-1 -1;
#X obj 446 221 inlet;
#X obj 513 466 inlet;
#X obj 627 598 outlet;
#X obj 947 426 outlet;
#X obj 599 281 del 2000;
#X obj 599 359 del 4000;
#X connect 0 0 17 0;
#X connect 1 0 10 0;
#X connect 1 0 16 0;
#X connect 2 0 3 0;
#X connect 3 0 15 0;
#X connect 4 0 5 0;
#X connect 5 0 2 1;
#X connect 5 0 12 0;
#X connect 6 0 4 1;
#X connect 7 0 8 1;
#X connect 8 0 4 0;
#X connect 9 0 18 0;
#X connect 9 1 7 0;
#X connect 9 2 6 0;
#X connect 10 0 11 0;
#X connect 10 1 2 0;
#X connect 11 0 8 1;
#X connect 13 0 0 0;
#X connect 14 0 8 0;
#X connect 17 0 9 0;
#X connect 18 0 1 0;
#X restore 730 452 pd average5s;
#X obj 799 560 bng 15 250 50 0 empty empty empty 17 7 0 10 -262144
-1 -1;
#X floatatom 629 477 5 0 0 0 - - -, f 5;
#X floatatom 730 477 5 0 0 0 - - -, f 5;
#X msg 496 709 lightly touch/pet plant with 1-2 fingers;
#X msg 597 745 closely pet/hold/hug your plant;
#X symbolatom 395 861 67 0 0 0 - - -, f 67;
#X obj 395 885 s \$0-calibrationInstruction;
#X msg 799 806 done calibrating;
#X msg 697 778 go away about 2 meters from the plant;
#X msg 395 668 just stand very close to plant without touching;
#X msg 194 806 not calibrated yet;
#X obj 194 759 loadbang;
#X obj 963 493 +;
#X obj 1004 518 / 3;
#X obj 395 822 l2s _;
#X obj 1386 524 outlet;
#X floatatom 1069 535 5 0 0 0 - - -, f 5;
#X obj 1262 493 -;
#X obj 1355 493 +;
#X floatatom 1386 493 5 0 0 0 - - -, f 5;
#X text 1386 544 someone is in close proximity - threshold;
#X text 1004 564 touchy touchy - threshold;
#X obj 1293 493 / 2;
#X obj 1324 493 * 1;
#X connect 0 0 5 1;
#X connect 0 0 8 1;
#X connect 0 0 11 1;
#X connect 0 0 13 1;
#X connect 1 0 27 0;
#X connect 2 0 0 0;
#X connect 4 0 5 0;
#X connect 4 0 23 0;
#X connect 5 0 6 0;
#X connect 5 1 7 0;
#X connect 5 1 8 0;
#X connect 6 0 1 1;
#X connect 6 0 31 1;
#X connect 6 0 32 1;
#X connect 7 0 17 0;
#X connect 8 0 9 0;
#X connect 8 1 10 0;
#X connect 8 1 11 0;
#X connect 9 0 26 1;
#X connect 10 0 18 0;
#X connect 11 0 15 0;
#X connect 11 1 12 0;
#X connect 11 1 13 0;
#X connect 12 0 22 0;
#X connect 13 0 16 0;
#X connect 13 1 14 0;
#X connect 14 0 21 0;
#X connect 15 0 26 0;
#X connect 16 0 31 0;
#X connect 17 0 28 0;
#X connect 18 0 28 0;
#X connect 19 0 20 0;
#X connect 21 0 28 0;
#X connect 22 0 28 0;
#X connect 23 0 28 0;
#X connect 24 0 28 0;
#X connect 25 0 24 0;
#X connect 26 0 1 0;
#X connect 27 0 3 0;
#X connect 27 0 30 0;
#X connect 28 0 19 0;
#X connect 31 0 36 0;
#X connect 32 0 33 0;
#X connect 33 0 29 0;
#X connect 36 0 37 0;
#X connect 37 0 32 0;
#X restore 615 282 pd calibrate;
#X msg 1186 391 1;
#X msg 1233 391 0;
#X floatatom 1186 454 5 0 0 0 - - -, f 5;
#X obj 1186 425 mavg 100, f 18;
#X obj 1186 503 moses 0.5;
#N canvas 0 4 1904 986 mavgArgument 0;
#X text 1011 449 hopsize (of env~ object);
#X obj 951 480 / 44100;
#X floatatom 951 505 8 0 0 0 - - -, f 8;
#X text 1011 505 hopsize (of env~ object in seconds);
#X msg 951 449 4096;
#X obj 951 418 loadbang;
#X obj 936 550 /;
#X floatatom 936 575 8 0 0 0 - - -, f 8;
#X text 689 534 seconds for moving average;
#X text 999 574 number of samples for moving average;
#X obj 866 533 inlet;
#X obj 936 631 outlet;
#X obj 936 599 i;
#X connect 1 0 2 0;
#X connect 2 0 6 1;
#X connect 4 0 1 0;
#X connect 5 0 4 0;
#X connect 6 0 7 0;
#X connect 7 0 12 0;
#X connect 10 0 6 0;
#X connect 12 0 11 0;
#X restore 1291 400 pd mavgArgument;
#X obj 1291 265 loadbang;
#X msg 1291 290 15;
#X obj 615 403 s triggerThreshold;
#X obj 654 319 loadbang;
#X obj 1245 470 s \$0-timeTouched;
#X obj 1549 475 counter;
#X obj 1549 450 metro 1000;
#X obj 1549 425 loadbang;
#X floatatom 1549 500 5 0 0 0 - - -, f 5;
#X obj 1639 435 r \$0-touched;
#X obj 1639 460 bng 15 250 50 0 empty empty empty 17 7 0 10 -262144
-1 -1;
#X obj 1549 574 moses 1;
#X obj 1549 522 / 60;
#X floatatom 1549 547 5 0 0 0 - - -, f 5;
#X obj 1617 563 s \$0-notTouchedFor;
#X obj 533 233 inlet;
#X obj 533 752 outlet;
#X obj 1185 760 outlet;
#X obj 1549 760 outlet;
#X obj 1185 726 tgl 25 0 empty empty empty 17 7 0 10 -262144 -1 -1
1 1;
#X obj 1549 726 tgl 25 0 empty empty empty 17 7 0 10 -262144 -1 -1
0 1;
#X msg 1237 533 1;
#X msg 1185 533 0;
#X msg 1588 601 1;
#X msg 1549 601 0;
#X obj 1570 361 f;
#X obj 1291 315 f;
#X obj 1291 127 inlet;
#X obj 1570 127 inlet;
#X text 533 205 rms signal;
#X text 1561 99 seconds (not touched) until needy;
#X text 1257 99 seconds (of touching) until annoyed;
#X text 533 778 touched;
#X text 1161 799 touched for too long;
#X text 1515 799 not touched for too long;
#X obj 737 299 s \$0-proximityThreshold;
#X floatatom 78 391 5 0 0 0 - - -, f 5;
#X obj 135 413 r \$0-proximityThreshold;
#X floatatom 135 438 5 0 0 0 - - -, f 5;
#X obj 78 461 moses 0.35;
#X obj 78 536 bng 15 250 50 0 empty empty empty 17 7 0 10 -262144 -1
-1;
#X text 104 538 determines if someone is in close proximity;
#X obj 78 559 s \$0-proximityAlert;
#X obj 135 485 bng 15 250 50 0 empty empty empty 17 7 0 10 -262144
-1 -1;
#X obj 135 508 s \$0-nobodyIsNear;
#X msg 1570 282 300;
#X obj 533 671 bng 38 250 50 0 \$0-touched empty empty 17 7 0 10 -262144
-1 -1;
#X obj 78 415 gate 20;
#X obj 533 374 moses 400;
#X msg 654 341 330;
#X connect 0 0 2 0;
#X connect 0 0 57 0;
#X connect 1 0 11 0;
#X connect 1 0 57 1;
#X connect 2 0 1 0;
#X connect 2 1 44 0;
#X connect 3 0 6 0;
#X connect 4 0 6 0;
#X connect 5 0 7 0;
#X connect 5 0 13 0;
#X connect 6 0 5 0;
#X connect 7 0 31 0;
#X connect 7 1 30 0;
#X connect 8 0 6 1;
#X connect 9 0 10 0;
#X connect 9 0 54 0;
#X connect 10 0 35 0;
#X connect 12 0 58 0;
#X connect 14 0 17 0;
#X connect 15 0 14 0;
#X connect 16 0 15 0;
#X connect 17 0 21 0;
#X connect 18 0 19 0;
#X connect 19 0 14 2;
#X connect 20 0 33 0;
#X connect 20 1 32 0;
#X connect 21 0 22 0;
#X connect 22 0 20 0;
#X connect 22 0 23 0;
#X connect 24 0 0 0;
#X connect 28 0 26 0;
#X connect 29 0 27 0;
#X connect 30 0 28 0;
#X connect 31 0 28 0;
#X connect 32 0 29 0;
#X connect 33 0 29 0;
#X connect 34 0 21 1;
#X connect 35 0 8 0;
#X connect 36 0 35 0;
#X connect 37 0 34 0;
#X connect 45 0 56 0;
#X connect 46 0 47 0;
#X connect 47 0 48 1;
#X connect 48 0 49 0;
#X connect 48 1 52 0;
#X connect 49 0 51 0;
#X connect 52 0 53 0;
#X connect 54 0 34 0;
#X connect 55 0 25 0;
#X connect 56 0 48 0;
#X connect 57 0 3 0;
#X connect 57 0 55 0;
#X connect 57 1 45 0;
#X connect 57 1 4 0;
#X connect 58 0 1 0;
#X restore 627 411 pd calculateTouches;
#X msg 682 356 15;
#X text 768 383 seconds (not touched) until needy;
#X text 711 356 seconds (of touching) until annoyed;
#N canvas 0 0 1888 970 decideMood 0;
#X msg 446 597 1;
#X obj 446 361 spigot 1;
#X obj 722 435 bng 15 250 50 0 empty empty empty 17 7 0 10 -262144
-1 -1;
#X obj 446 435 bng 15 250 50 0 empty empty empty 17 7 0 10 -262144
-1 -1;
#X text 1002 390 needy;
#X text 741 435 angry;
#X text 470 435 happy;
#X obj 445 211 gate 4000;
#X obj 445 163 inlet;
#X text 440 134 touched;
#X text 632 134 touched for too long;
#X text 916 134 not touched for too long;
#X obj 767 163 inlet;
#X obj 982 163 inlet;
#X obj 767 279 tgl 15 0 empty empty empty 17 7 0 10 -262144 -1 -1 1
1;
#X obj 722 349 spigot 0;
#X obj 982 279 tgl 15 0 empty empty empty 17 7 0 10 -262144 -1 -1 0
1;
#X obj 982 390 bng 15 250 50 0 empty empty empty 17 7 0 10 -262144
-1 -1;
#X obj 982 299 route 1;
#X obj 491 294 - 1;
#X obj 491 315 * -1;
#X obj 491 335 tgl 15 0 empty empty empty 17 7 0 10 -262144 -1 -1 -0
1;
#X floatatom 722 645 5 0 0 0 - - -, f 5;
#X obj 722 669 outlet;
#X obj 1173 337 r \$0-proximityAlert;
#X obj 982 569 bng 15 250 50 0 empty empty empty 17 7 0 10 -262144
-1 -1;
#X obj 982 471 gate 10000;
#X obj 982 541 moses 10;
#X obj 1308 343 r \$0-nobodyIsNear;
#X msg 1173 380 1;
#X msg 1308 386 0;
#X obj 1173 403 tgl 15 0 empty empty empty 17 7 0 10 -262144 -1 -1
0 1;
#X obj 1173 362 bng 15 250 50 0 empty empty empty 17 7 0 10 -262144
-1 -1;
#X obj 1308 362 bng 15 250 50 0 empty empty empty 17 7 0 10 -262144
-1 -1;
#X obj 982 418 demux . ., f 13;
#X obj 1057 552 gate 10000;
#X obj 982 447 bng 15 250 50 0 empty empty empty 17 7 0 10 -262144
-1 -1;
#X obj 1057 450 bng 15 250 50 0 empty empty empty 17 7 0 10 -262144
-1 -1;
#X obj 982 496 bng 15 250 50 0 empty empty empty 17 7 0 10 -262144
-1 -1;
#X text 1141 522 if someone comes within close proximity \, the plant
always makes a sound. if noone is there it makes sounds way less frequently
;
#X obj 982 516 random 1000;
#X msg 982 596 3;
#X msg 722 597 2;
#X connect 0 0 22 0;
#X connect 1 0 3 0;
#X connect 2 0 42 0;
#X connect 3 0 0 0;
#X connect 7 0 1 0;
#X connect 7 0 15 0;
#X connect 8 0 7 0;
#X connect 12 0 14 0;
#X connect 13 0 16 0;
#X connect 14 0 15 1;
#X connect 14 0 19 0;
#X connect 15 0 2 0;
#X connect 16 0 18 0;
#X connect 17 0 34 0;
#X connect 18 0 17 0;
#X connect 19 0 20 0;
#X connect 20 0 21 0;
#X connect 21 0 1 1;
#X connect 22 0 23 0;
#X connect 24 0 32 0;
#X connect 25 0 41 0;
#X connect 26 0 38 0;
#X connect 27 0 25 0;
#X connect 28 0 33 0;
#X connect 29 0 31 0;
#X connect 30 0 31 0;
#X connect 31 0 34 1;
#X connect 32 0 29 0;
#X connect 33 0 30 0;
#X connect 34 0 36 0;
#X connect 34 1 37 0;
#X connect 35 0 25 0;
#X connect 36 0 26 0;
#X connect 37 0 35 0;
#X connect 38 0 40 0;
#X connect 40 0 27 0;
#X connect 41 0 22 0;
#X connect 42 0 22 0;
#X restore 627 471 pd decideMood;
#X f 19;
#N canvas 0 0 1888 970 playAudio 0;
#X obj 448 91 inlet;
#N canvas 0 0 1888 970 loadAudio 0;
#X obj 59 175 soundfiler;
#X msg 59 100 Sounds/happy1.wav;
#X obj 59 125 symbol;
#X obj 280 175 soundfiler;
#X obj 280 125 symbol;
#X msg 280 100 Sounds/happy2.wav;
#X obj 501 175 soundfiler;
#X obj 501 125 symbol;
#X msg 501 100 Sounds/happy3.wav;
#X obj 59 336 soundfiler;
#X obj 59 286 symbol;
#X obj 280 336 soundfiler;
#X obj 280 286 symbol;
#X obj 501 336 soundfiler;
#X obj 501 286 symbol;
#X msg 59 261 Sounds/angry1.wav;
#X msg 280 261 Sounds/angry2.wav;
#X msg 501 261 Sounds/angry3.wav;
#X obj 59 470 soundfiler;
#X obj 59 420 symbol;
#X obj 280 470 soundfiler;
#X obj 280 420 symbol;
#X obj 501 470 soundfiler;
#X obj 501 420 symbol;
#X msg 59 395 Sounds/needy1.wav;
#X msg 280 395 Sounds/needy2.wav;
#X msg 501 395 Sounds/needy3.wav;
#X obj 749 54 loadbang;
#X obj 749 85 bng 15 250 50 0 empty empty empty 17 7 0 10 -262144 -1
-1;
#X obj 749 246 bng 15 250 50 0 empty empty empty 17 7 0 10 -262144
-1 -1;
#X obj 749 380 bng 15 250 50 0 empty empty empty 17 7 0 10 -262144
-1 -1;
#X obj 1385 344 soundfiler;
#X obj 1385 246 symbol;
#X obj 1385 219 openpanel;
#X obj 1385 194 bng 15 250 50 0 empty empty empty 17 7 0 10 -262144
-1 -1;
#X msg 1385 318 read -resize \$1 \$0-happy1;
#X symbolatom 1243 284 80 0 0 0 - - -, f 80;
#X msg 59 150 read -resize \$1 happy1;
#X msg 280 150 read -resize \$1 happy2;
#X msg 501 150 read -resize \$1 happy3;
#X msg 59 311 read -resize \$1 angry1;
#X msg 282 311 read -resize \$1 angry2;
#X msg 503 311 read -resize \$1 angry3;
#X msg 501 445 read -resize \$1 needy3;
#X msg 280 445 read -resize \$1 needy2;
#X msg 59 445 read -resize \$1 needy1;
#X obj 749 668 soundfiler;
#X obj 749 618 symbol;
#X msg 749 593 Sounds/purring.wav;
#X msg 749 643 read -resize \$1 purring;
#X connect 1 0 2 0;
#X connect 2 0 37 0;
#X connect 4 0 38 0;
#X connect 5 0 4 0;
#X connect 7 0 39 0;
#X connect 8 0 7 0;
#X connect 10 0 40 0;
#X connect 12 0 41 0;
#X connect 14 0 42 0;
#X connect 15 0 10 0;
#X connect 16 0 12 0;
#X connect 17 0 14 0;
#X connect 19 0 45 0;
#X connect 21 0 44 0;
#X connect 23 0 43 0;
#X connect 24 0 19 0;
#X connect 25 0 21 0;
#X connect 26 0 23 0;
#X connect 27 0 28 0;
#X connect 27 0 29 0;
#X connect 27 0 30 0;
#X connect 28 0 8 0;
#X connect 28 0 5 0;
#X connect 28 0 1 0;
#X connect 29 0 17 0;
#X connect 29 0 16 0;
#X connect 29 0 15 0;
#X connect 30 0 26 0;
#X connect 30 0 25 0;
#X connect 30 0 24 0;
#X connect 30 0 48 0;
#X connect 32 0 35 0;
#X connect 32 0 36 0;
#X connect 33 0 32 0;
#X connect 34 0 33 0;
#X connect 35 0 31 0;
#X connect 37 0 0 0;
#X connect 38 0 3 0;
#X connect 39 0 6 0;
#X connect 40 0 9 0;
#X connect 41 0 11 0;
#X connect 42 0 13 0;
#X connect 43 0 22 0;
#X connect 44 0 20 0;
#X connect 45 0 18 0;
#X connect 47 0 49 0;
#X connect 48 0 47 0;
#X connect 49 0 46 0;
#X restore 28 51 pd loadAudio;
#N canvas 0 4 1904 986 tables 0;
#N canvas 0 0 450 300 (subpatch) 0;
#X array happy1 70495 float 0 black black;
#X coords 0 1 70494 -1 200 140 1;
#X restore 530 92 graph;
#N canvas 0 0 450 300 (subpatch) 0;
#X array angry1 102766 float 0 black black;
#X coords 0 1 102765 -1 200 140 1;
#X restore 530 327 graph;
#N canvas 0 0 450 300 (subpatch) 0;
#X array needy1 102139 float 0 black black;
#X coords 0 1 102138 -1 200 140 1;
#X restore 530 562 graph;
#N canvas 0 0 450 300 (subpatch) 0;
#X array happy2 51383 float 0 black black;
#X coords 0 1 51382 -1 200 140 1;
#X restore 745 92 graph;
#N canvas 0 0 450 300 (subpatch) 0;
#X array happy3 109658 float 0 black black;
#X coords 0 1 109657 -1 200 140 1;
#X restore 960 92 graph;
#N canvas 0 0 450 300 (subpatch) 0;
#X array angry2 65168 float 0 black black;
#X coords 0 1 65167 -1 200 140 1;
#X restore 745 327 graph;
#N canvas 0 0 450 300 (subpatch) 0;
#X array angry3 124071 float 0 black black;
#X coords 0 1 124070 -1 200 140 1;
#X restore 960 327 graph;
#N canvas 0 0 450 300 (subpatch) 0;
#X array needy2 64855 float 0 black black;
#X coords 0 1 64854 -1 200 140 1;
#X restore 745 562 graph;
#N canvas 0 0 450 300 (subpatch) 0;
#X array needy3 81461 float 0 black black;
#X coords 0 1 81460 -1 200 140 1;
#X restore 960 562 graph;
#N canvas 0 0 450 300 (subpatch) 0;
#X array purring 730624 float 0 black black;
#X coords 0 1 730623 -1 200 140 1;
#X restore 528 769 graph;
#X restore 27 25 pd tables;
#N canvas 0 0 1904 986 playHappy 0;
#X obj 595 331 bng 15 250 50 0 empty empty empty 17 7 0 10 -262144
-1 -1;
#X obj 595 354 random 3;
#X obj 595 409 route 0 1 2;
#X obj 595 270 inlet;
#X obj 498 447 tabplay~ happy1;
#X obj 654 450 tabplay~ happy2;
#X obj 777 449 tabplay~ happy3;
#X obj 657 542 outlet~;
#X connect 0 0 1 0;
#X connect 1 0 2 0;
#X connect 2 0 4 0;
#X connect 2 1 5 0;
#X connect 2 2 6 0;
#X connect 3 0 0 0;
#X connect 4 0 7 0;
#X connect 5 0 7 0;
#X connect 6 0 7 0;
#X restore 448 191 pd playHappy;
#N canvas 0 0 1888 970 playAngry 0;
#X obj 595 331 bng 15 250 50 0 empty empty empty 17 7 0 10 -262144
-1 -1;
#X obj 595 354 random 3;
#X obj 595 409 route 0 1 2, f 30;
#X obj 595 270 inlet;
#X obj 595 466 tabplay~ angry1;
#X obj 654 487 tabplay~ angry2;
#X obj 713 512 tabplay~ angry3;
#X obj 654 582 outlet~;
#X connect 0 0 1 0;
#X connect 1 0 2 0;
#X connect 2 0 4 0;
#X connect 2 1 5 0;
#X connect 2 2 6 0;
#X connect 3 0 0 0;
#X connect 4 0 7 0;
#X connect 5 0 7 0;
#X connect 6 0 7 0;
#X restore 501 219 pd playAngry;
#N canvas 0 0 1888 970 playNeedy 0;
#X obj 595 331 bng 15 250 50 0 empty empty empty 17 7 0 10 -262144
-1 -1;
#X obj 595 354 random 3;
#X obj 595 409 route 0 1 2;
#X obj 595 270 inlet;
#X obj 782 448 tabplay~ needy3;
#X obj 654 450 tabplay~ needy2;
#X obj 498 447 tabplay~ needy1;
#X obj 647 526 outlet~;
#X connect 0 0 1 0;
#X connect 1 0 2 0;
#X connect 2 0 6 0;
#X connect 2 1 5 0;
#X connect 2 2 4 0;
#X connect 3 0 0 0;
#X connect 4 0 7 0;
#X connect 5 0 7 0;
#X connect 6 0 7 0;
#X restore 554 247 pd playNeedy;
#X obj 448 155 bng 15 250 50 0 empty empty empty 17 7 0 10 -262144
-1 -1;
#X obj 501 155 bng 15 250 50 0 empty empty empty 17 7 0 10 -262144
-1 -1;
#X obj 554 155 bng 15 250 50 0 empty empty empty 17 7 0 10 -262144
-1 -1;
#X obj 491 366 dac~;
#X obj 502 303 +~;
#X obj 576 370 dbtorms;
#X floatatom 576 395 5 0 0 0 - - -, f 5;
#X obj 579 439 s \$0-activateLEDs;
#X obj 576 345 env~ 1024;
#X obj 448 120 route 1 2 3 4, f 27;
#X obj 646 163 bng 15 250 50 0 empty empty empty 17 7 0 10 -262144
-1 -1;
#N canvas 0 0 1888 970 playPurring 0;
#X obj 595 331 bng 15 250 50 0 empty empty empty 17 7 0 10 -262144
-1 -1;
#X obj 595 270 inlet;
#X obj 595 409 outlet~;
#X obj 595 370 tabplay~ purring;
#X connect 0 0 3 0;
#X connect 1 0 0 0;
#X connect 3 0 2 0;
#X restore 646 246 pd playPurring;
#X obj 646 271 *~ 0.3;
#X connect 0 0 15 0;
#X connect 3 0 10 0;
#X connect 4 0 10 0;
#X connect 5 0 10 0;
#X connect 6 0 3 0;
#X connect 7 0 4 0;
#X connect 8 0 5 0;
#X connect 10 0 9 0;
#X connect 10 0 9 1;
#X connect 10 0 14 0;
#X connect 11 0 12 0;
#X connect 14 0 11 0;
#X connect 15 0 6 0;
#X connect 15 1 7 0;
#X connect 15 2 8 0;
#X connect 15 3 16 0;
#X connect 16 0 17 0;
#X connect 17 0 18 0;
#X connect 18 0 10 0;
#X restore 627 553 pd playAudio;
#X obj 784 31 cnv 1 1 170 empty empty empty 20 12 0 14 -1 -66577 0
;
#X obj 787 122 cnv 1 382 1 empty empty empty 20 12 0 14 -1 -66577 0
;
#X obj 1186 162 bng 25 250 50 0 empty \$0-nobodyIsNear empty 17 7 0
10 -133153 -1 -1;
#X obj 1186 106 bng 25 250 50 0 empty \$0-proximityAlert empty 17 7
0 10 -133153 -1 -1;
#X obj 1174 31 cnv 1 1 170 empty empty empty 20 12 0 14 -1 -66577 0
;
#X text 1218 168 nobody here;
#X text 1218 111 someone nearby;
#X text 1218 54 plant touched;
#X floatatom 627 523 5 0 0 0 - - -, f 5;
#X obj 627 498 gate 2000;
#X obj 625 109 bng 15 250 50 0 \$0-print_available_ports empty print\ available\ ports
22 7 0 10 -262144 -1 -1;
#X msg 738 384 300;
#X obj 837 -4 i;
#X obj 627 436 bng 15 250 50 0 empty empty empty 17 7 0 10 -262144
-1 -1;
#X connect 0 0 36 0;
#X connect 6 0 1 0;
#X connect 7 0 8 0;
#X connect 14 0 18 0;
#X connect 14 1 3 0;
#X connect 14 2 5 0;
#X connect 15 0 14 0;
#X connect 16 0 17 0;
#X connect 17 0 15 0;
#X connect 18 0 22 0;
#X connect 18 0 37 0;
#X connect 18 1 22 1;
#X connect 18 2 22 2;
#X connect 19 0 18 1;
#X connect 22 0 33 0;
#X connect 32 0 23 0;
#X connect 33 0 32 0;
#X connect 35 0 18 2;
#X connect 36 0 4 0;
#X coords 0 -1 1 1 701 177 2 612 29;
#X restore 328 440 pd GUI;
#N canvas 0 4 1904 1009 calibrationGUI 0;
#X obj 562 167 bng 37 250 50 0 \$0-calibrate empty start\ calibration
49 13 0 25 -262144 -1 -1;
#X obj 157 224 r \$0-calibrationInstruction;
#X symbolatom 587 244 57 0 0 0 - - -, f 57;
#X obj 558 240 bng 25 250 50 0 empty empty empty 17 7 0 10 -4033 -1
-1;
#X text 560 212 follow instructions below:;
#X connect 1 0 2 0;
#X connect 1 0 3 0;
#X coords 0 -1 1 1 397 110 2 554 158;
#X restore 328 307 pd calibrationGUI;
#N canvas 0 0 1904 1009 init 0;
#X obj 104 93 declare -lib zexy;
#X obj 104 118 declare -lib cyclone;
#X obj 275 149 tgl 15 0 empty empty empty 17 7 0 10 -262144 -1 -1 1
1;
#X obj 275 191 s pd;
#X msg 275 172 dsp \$1;
#X obj 275 70 loadbang;
#X obj 444 107 r openPort;
#X obj 359 107 r closePort;
#X msg 359 132 0;
#X msg 444 132 1;
#X msg 275 117 0;
#X obj 275 95 del 50;
#X connect 2 0 4 0;
#X connect 4 0 3 0;
#X connect 5 0 11 0;
#X connect 6 0 9 0;
#X connect 7 0 8 0;
#X connect 8 0 2 0;
#X connect 9 0 2 0;
#X connect 10 0 2 0;
#X connect 11 0 10 0;
#X restore 18 8 pd init;
#X obj 1638 57 hsl 220 29 0 100 0 0 empty visualizeHumidity humidity
-2 -8 0 10 -64 -262144 -1 0 1;
#X floatatom 1646 101 8 0 0 0 - - -, f 8;
#X obj 1636 136 hsl 211 26 0 1 0 0 empty visualizeLight light -2 -8
0 10 -262081 -1 -1 0 1;
#X floatatom 1634 172 8 0 0 0 - - -, f 8;
#X obj 1248 432 r visualizeVoltage;
#X obj 1248 585 timeroll;
#X floatatom 1248 476 5 0 0 0 - - -, f 5;
#X obj 1248 541 / 20;
#X obj 1248 563 resample 50;
#X obj 1483 453 r visualizeVoltage;
#X obj 1483 584 timeroll;
#X floatatom 1483 497 5 0 0 0 - - -, f 5;
#X obj 1483 562 resample 50;
#X text 1248 735 proximity;
#X text 1483 734 touch;
#X obj 1248 497 clip 380 400;
#X obj 1248 519 - 380;
#X obj 1483 518 - 150;
#X obj 1483 540 / 250;
#X connect 3 0 4 0;
#X connect 5 0 6 0;
#X connect 7 0 9 0;
#X connect 9 0 18 0;
#X connect 10 0 11 0;
#X connect 11 0 8 0;
#X connect 12 0 14 0;
#X connect 14 0 20 0;
#X connect 15 0 13 0;
#X connect 18 0 19 0;
#X connect 19 0 10 0;
#X connect 20 0 21 0;
#X connect 21 0 15 0;
