#N canvas -8 -8 1365 681 10;
#X obj 884 178 s \$0-ringbuffer;
#X obj 728 34 loadbang;
#X obj 86 50 table \$0-ringbuffer;
#X msg 884 152 resize \$1;
#X obj 821 86 i \$1;
#X obj 389 86 inlet;
#X obj 728 59 t b b b, f 16;
#X floatatom 545 200 5 0 0 0 - - -, f 5;
#X text 582 204 current index;
#X obj 416 243 tabwrite \$0-ringbuffer;
#X obj 821 111 t f f, f 11;
#X obj 184 109 tgl 15 0 empty empty empty 17 7 0 10 -262144 -1 -1 0
1;
#X floatatom 947 103 5 0 0 0 - - -, f 5;
#X obj 545 128 loop 10;
#X obj 545 153 - 1;
#X floatatom 545 178 5 0 0 0 - - -, f 5;
#X obj 185 162 random 1000;
#X obj 185 187 / 500;
#X obj 185 212 - 1;
#X floatatom 185 237 5 0 0 0 - - -, f 5;
#X obj 389 111 t b f;
#X obj 584 76 bng 15 250 50 0 empty empty empty 17 7 0 10 -262144 -1
-1;
#X floatatom 466 500 10 0 0 0 - - -, f 10;
#X obj 466 475 array sum \$0-ringbuffer;
#X obj 466 358 bng 15 250 50 0 empty empty empty 17 7 0 10 -262144
-1 -1;
#X obj 622 475 array size \$0-ringbuffer;
#X floatatom 622 500 5 0 0 0 - - -, f 5;
#X obj 466 381 t b b;
#X obj 484 550 / 1;
#X floatatom 484 575 5 0 0 0 - - -, f 5;
#X text 524 622 average of array;
#X obj 891 333 bng 15 250 50 0 empty empty empty 17 7 0 10 -262144
-1 -1;
#X obj 891 439 for 3, f 7;
#X obj 930 386 array size \$0-ringbuffer;
#X floatatom 930 412 5 0 0 0 - - -, f 5;
#X obj 930 469 tabread \$0-ringbuffer;
#X obj 185 137 metro 50;
#X obj 929 519 pow 2;
#X obj 643 307 t b b;
#X obj 645 278 bng 15 250 50 0 empty empty empty 17 7 0 10 -262144
-1 -1;
#X obj 929 493 -;
#X obj 929 551 +;
#X obj 989 551 f;
#X obj 891 356 t b b b, f 17;
#X msg 989 517 0;
#X obj 929 576 / 1;
#X floatatom 929 601 8 0 0 0 - - -, f 8;
#X obj 479 622 outlet;
#X obj 929 625 outlet;
#X text 929 651 variance of array;
#X obj 688 254 inlet;
#X connect 1 0 6 0;
#X connect 3 0 0 0;
#X connect 4 0 10 0;
#X connect 4 0 12 0;
#X connect 5 0 20 0;
#X connect 6 1 21 0;
#X connect 6 2 4 0;
#X connect 7 0 9 1;
#X connect 10 0 13 1;
#X connect 10 1 3 0;
#X connect 11 0 36 0;
#X connect 13 0 14 0;
#X connect 14 0 15 0;
#X connect 15 0 7 0;
#X connect 16 0 17 0;
#X connect 17 0 18 0;
#X connect 18 0 19 0;
#X connect 20 0 13 0;
#X connect 20 1 9 0;
#X connect 21 0 13 2;
#X connect 22 0 28 0;
#X connect 23 0 22 0;
#X connect 24 0 27 0;
#X connect 25 0 26 0;
#X connect 26 0 28 1;
#X connect 26 0 45 1;
#X connect 27 0 23 0;
#X connect 27 1 25 0;
#X connect 28 0 29 0;
#X connect 29 0 40 1;
#X connect 29 0 47 0;
#X connect 31 0 43 0;
#X connect 32 1 35 0;
#X connect 33 0 34 0;
#X connect 34 0 32 1;
#X connect 35 0 40 0;
#X connect 36 0 16 0;
#X connect 37 0 41 0;
#X connect 38 0 31 0;
#X connect 38 1 24 0;
#X connect 39 0 38 0;
#X connect 40 0 37 0;
#X connect 41 0 42 0;
#X connect 41 0 45 0;
#X connect 42 0 41 1;
#X connect 43 0 32 0;
#X connect 43 1 33 0;
#X connect 43 2 44 0;
#X connect 44 0 42 0;
#X connect 45 0 46 0;
#X connect 46 0 48 0;
#X connect 50 0 39 0;
